# xmcd
#
# Track frame offsets:
#  150
#  18149
#  31820
#  46420
#  60836
#  79167
#  94358
#  110209
#  126217
#  139888
#  149980
#  163890
#
# Disc length: 2415 seconds
#
# Revision: 0
# Processed by: cddbd v1.5.2PL0 Copyright (c) Steve Scherf et al.
# Submitted via: AltoMP3_Maker 3.0
#
DISCID=ac096d0c
DTITLE=Bob Stump and The Blue Mountain Band - Roadside Attraction!
DYEAR=1900
DGENRE=
TTITLE0=Roadside Attraction
TTITLE1=Georgia on a Fast Train
TTITLE2=Blue Moon of Kentucky
TTITLE3=Missin' You
TTITLE4=Long Road Home
TTITLE5=Just Inside Kentucky
TTITLE6=Temperance Reel
TTITLE7=Little Cabin Home on the Hill
TTITLE8=I Walk with You
TTITLE9=Mizz Dwayne
TTITLE10=Pretty as a Flower
TTITLE11=Friend of the Devil
EXTD=
EXTT0=
EXTT1=
EXTT2=
EXTT3=
EXTT4=
EXTT5=
EXTT6=
EXTT7=
EXTT8=
EXTT9=
EXTT10=
EXTT11=
PLAYORDER=
